<svg xmlns="http://www.w3.org/2000/svg" version="1.1" width="3300" height="2000"><g id="Notes"><style>
    text {
      font-family: monospace;
      text-anchor: middle;
    }
    text.emphasis {
      font-weight:bold;
    }
    text.lanchor {
      text-anchor: start;
    }
  </style><rect height="2200" id="artboard" fill="white" width="3300" x="0" y="0"/><line id="" style="fill:none;stroke:black;stroke-width:0.5;" x1="263" x2="3036" y1="292" y2="292"/><text class="lanchor emphasis" transform="matrix(1 0 0 1 263 322)">Weight/Scale Variations</text><text transform="matrix(1 0 0 1 559.711 322)">Ultralight</text><text transform="matrix(1 0 0 1 856.422 322)">Thin</text><text transform="matrix(1 0 0 1 1153.13 322)">Light</text><text transform="matrix(1 0 0 1 1449.84 322)">Regular</text><text transform="matrix(1 0 0 1 1746.56 322)">Medium</text><text transform="matrix(1 0 0 1 2043.27 322)">Semibold</text><text transform="matrix(1 0 0 1 2339.98 322)">Bold</text><text transform="matrix(1 0 0 1 2636.69 322)">Heavy</text><text transform="matrix(1 0 0 1 2933.4 322)">Black</text><text id="template-version" style="text-anchor: end;" transform="matrix(1 0 0 1 3036 1933)">Template v.1.0</text><text class="lanchor" transform="matrix(1 0 0 1 263 726)">Small</text><text class="lanchor" transform="matrix(1 0 0 1 263 1156)">Medium</text><text class="lanchor" transform="matrix(1 0 0 1 263 1586)">Large</text></g><g id="Guides"><g id="H-reference" style="fill:#27AAE1;stroke:none;" transform="matrix(1 0 0 1 339 696)"><path d="M 54.9316 0 L 57.666 0 L 30.5664 -70.459 L 28.0762 -70.459 L 0.976562 0 L 3.66211 0 L 12.9395 -24.4629 L 45.7031 -24.4629 Z M 29.1992 -67.0898 L 29.4434 -67.0898 L 44.8242 -26.709 L 13.8184 -26.709 Z"/></g><line id="Baseline-S" style="fill:none;stroke:#27AAE1;opacity:1;stroke-width:0.577;" x1="263" x2="3036" y1="696" y2="696"/><line id="Capline-S" style="fill:none;stroke:#27AAE1;opacity:1;stroke-width:0.577;" x1="263" x2="3036" y1="625.541" y2="625.541"/><g id="H-reference" style="fill:#27AAE1;stroke:none;" transform="matrix(1 0 0 1 339 1126)"><path d="M 54.9316 0 L 57.666 0 L 30.5664 -70.459 L 28.0762 -70.459 L 0.976562 0 L 3.66211 0 L 12.9395 -24.4629 L 45.7031 -24.4629 Z M 29.1992 -67.0898 L 29.4434 -67.0898 L 44.8242 -26.709 L 13.8184 -26.709 Z"/></g><line id="Baseline-M" style="fill:none;stroke:#27AAE1;opacity:1;stroke-width:0.577;" x1="263" x2="3036" y1="1126" y2="1126"/><line id="Capline-M" style="fill:none;stroke:#27AAE1;opacity:1;stroke-width:0.577;" x1="263" x2="3036" y1="1055.54" y2="1055.54"/><g id="H-reference" style="fill:#27AAE1;stroke:none;" transform="matrix(1 0 0 1 339 1556)"><path d="M 54.9316 0 L 57.666 0 L 30.5664 -70.459 L 28.0762 -70.459 L 0.976562 0 L 3.66211 0 L 12.9395 -24.4629 L 45.7031 -24.4629 Z M 29.1992 -67.0898 L 29.4434 -67.0898 L 44.8242 -26.709 L 13.8184 -26.709 Z"/></g><line id="Baseline-L" style="fill:none;stroke:#27AAE1;opacity:1;stroke-width:0.577;" x1="263" x2="3036" y1="1556" y2="1556"/><line id="Capline-L" style="fill:none;stroke:#27AAE1;opacity:1;stroke-width:0.577;" x1="263" x2="3036" y1="1485.54" y2="1485.54"/><rect height="119.336" id="left-margin" style="fill:darkred;stroke:none;opacity:0.4;" width="12.4512" x="1394.06" y="1030.79"/><rect height="119.336" id="right-margin" style="fill:darkgreen;stroke:none;opacity:0.4;" width="12.4512" x="1502.5112" y="1030.79"/><rect x="1406.5112" y="1045" width="96" height="96" fill="none" stroke="blue" stroke-dasharray="5"/><rect x="1394.06" y="1030.79" width="120.9024" height="119.336" fill="none" stroke="blue"/></g><g id="Symbols"><g id="Bold-L" transform="matrix(1 0 0 1 2266 1556)"><path d="M77.997 31.689 Q63.99 31.689 51.7 26.338 Q39.41 20.987 30.297 11.873 Q21.183 2.761 15.832 -9.53 Q10.481 -21.82 10.481 -35.827 Q10.481 -60.941 26.687 -79.77 Q42.892 -98.601 67.403 -102.955 Q65.468 -86.669 69.741 -71.007 Q74.014 -55.343 85.785 -43.717 Q97.234 -32.09 112.956 -27.892 Q128.678 -23.693 144.964 -24.825 Q140.771 -0.444 121.942 15.623 Q103.111 31.689 77.997 31.689 Z M78.045 16.37 Q92.074 16.37 103.764 8.791 Q115.455 1.213 123.356 -10.559 Q109.811 -12.494 97.234 -17.976 Q84.656 -23.459 75.062 -33.134 Q65.306 -42.647 59.904 -55.064 Q54.503 -67.48 52.406 -80.864 Q40.796 -73.124 33.298 -61.514 Q25.8 -49.904 25.8 -35.875 Q25.8 -13.972 40.97 1.2 Q56.142 16.37 78.045 16.37 Z"/></g><g id="Semibold-L" transform="matrix(1 0 0 1 1970.27 1556)"><path d="M78.018 30.637 Q64.211 30.637 52.113 25.369 Q40.013 20.101 31.041 11.129 Q22.069 2.157 16.801 -9.943 Q11.533 -22.041 11.533 -35.848 Q11.533 -60.279 27.213 -78.738 Q42.892 -97.198 66.841 -101.552 Q64.485 -85.477 68.934 -69.989 Q73.383 -54.501 85.014 -42.946 Q96.463 -31.389 111.974 -26.979 Q127.486 -22.57 143.632 -24.475 Q139.439 -0.582 120.944 15.027 Q102.449 30.637 78.018 30.637 Z M78.045 17.773 Q92.985 17.773 105.341 9.493 Q117.698 1.213 125.67 -11.61 Q111.704 -13.265 98.775 -18.712 Q85.848 -24.16 75.973 -34.045 Q66.008 -43.839 60.64 -56.641 Q55.273 -69.442 53.529 -83.247 Q40.796 -75.507 32.597 -63.162 Q24.397 -50.815 24.397 -35.875 Q24.397 -13.447 40.008 2.162 Q55.617 17.773 78.045 17.773 Z"/></g><g id="Medium-L" transform="matrix(1 0 0 1 1674.31 1556)"><path d="M78.034 29.849 Q64.377 29.849 52.421 24.642 Q40.464 19.437 31.599 10.571 Q22.733 1.706 17.528 -10.251 Q12.321 -22.207 12.321 -35.864 Q12.321 -59.782 27.608 -77.964 Q42.892 -96.147 66.42 -100.501 Q63.75 -84.584 68.33 -69.226 Q72.909 -53.87 84.435 -42.367 Q95.884 -30.863 111.238 -26.297 Q126.593 -21.729 142.632 -24.212 Q138.44 -0.689 120.196 14.58 Q101.952 29.849 78.034 29.849 Z M78.045 18.824 Q93.669 18.824 106.525 10.018 Q119.381 1.213 127.405 -12.399 Q113.123 -13.843 99.933 -19.265 Q86.741 -24.686 76.657 -34.729 Q66.533 -44.732 61.193 -57.824 Q55.852 -70.915 54.369 -85.035 Q40.796 -77.295 32.071 -64.397 Q23.346 -51.499 23.346 -35.875 Q23.346 -13.052 39.284 2.886 Q55.222 18.824 78.045 18.824 Z"/></g><g id="Regular-L" transform="matrix(1 0 0 1 1378.56 1556)"><path d="M78.045 29.27 Q64.5 29.27 52.648 24.11 Q40.796 18.95 32.008 10.162 Q23.22 1.374 18.06 -10.478 Q12.9 -22.33 12.9 -35.875 Q12.9 -59.417 27.896 -77.397 Q42.892 -95.376 66.112 -99.73 Q63.21 -83.927 67.886 -68.668 Q72.562 -53.408 84.011 -41.943 Q95.46 -30.478 110.698 -25.795 Q125.936 -21.113 141.9 -24.018 Q137.708 -0.766 119.648 14.253 Q101.588 29.27 78.045 29.27 Z M78.045 19.595 Q94.17 19.595 107.392 10.404 Q120.615 1.213 128.678 -12.977 Q114.165 -14.267 100.781 -19.669 Q87.398 -25.071 77.158 -35.23 Q66.919 -45.389 61.598 -58.692 Q56.276 -71.995 54.986 -86.346 Q40.796 -78.606 31.686 -65.303 Q22.575 -52 22.575 -35.875 Q22.575 -12.763 38.753 3.417 Q54.933 19.595 78.045 19.595 Z"/></g><g id="Light-L" transform="matrix(1 0 0 1 1082.77 1556)"><path d="M78.045 26.045 Q65.177 26.045 53.917 21.164 Q42.657 16.283 34.272 7.898 Q25.887 -0.487 21.006 -11.747 Q16.125 -23.007 16.125 -35.875 Q16.125 -57.06 29.044 -73.614 Q41.962 -90.166 62.454 -95.326 Q60.667 -79.896 65.653 -65.295 Q70.64 -50.695 81.717 -39.61 Q92.793 -28.522 107.38 -23.531 Q121.966 -18.541 137.496 -20.33 Q132.436 0.182 115.832 13.113 Q99.23 26.045 78.045 26.045 Z M78.045 18.726 Q93.673 18.726 106.586 10.094 Q119.499 1.461 127.25 -12.25 Q112.925 -13.542 99.79 -19.045 Q86.653 -24.547 76.537 -34.658 Q66.361 -44.707 60.915 -57.731 Q55.47 -70.755 54.241 -84.982 Q40.548 -77.49 31.995 -64.497 Q23.444 -51.503 23.444 -35.875 Q23.444 -13.073 39.343 2.827 Q55.243 18.726 78.045 18.726 Z"/></g><g id="Thin-L" transform="matrix(1 0 0 1 787.282 1556)"><path d="M78.045 22.82 Q65.853 22.82 55.185 18.218 Q44.518 13.616 36.536 5.634 Q28.554 -2.348 23.952 -13.015 Q19.35 -23.683 19.35 -35.875 Q19.35 -54.704 30.191 -69.831 Q41.032 -84.958 58.795 -90.923 Q58.124 -75.865 63.421 -61.925 Q68.717 -47.983 79.422 -37.275 Q90.126 -26.568 104.063 -21.269 Q117.998 -15.97 133.093 -16.641 Q127.165 1.129 112.019 11.974 Q96.874 22.82 78.045 22.82 Z M78.045 17.858 Q93.178 17.858 105.78 9.783 Q118.382 1.709 125.825 -11.523 Q111.685 -12.816 98.796 -18.421 Q85.909 -24.025 75.918 -34.087 Q65.803 -44.025 60.233 -56.77 Q54.664 -69.515 53.498 -83.618 Q40.3 -76.373 32.306 -63.691 Q24.312 -51.008 24.312 -35.875 Q24.312 -13.382 39.932 2.238 Q55.552 17.858 78.045 17.858 Z"/></g><g id="Ultralight-L" transform="matrix(1 0 0 1 491.205 1556)"><path d="M78.045 20.885 Q66.259 20.885 55.946 16.451 Q45.634 12.016 37.894 4.276 Q30.154 -3.464 25.719 -13.776 Q21.285 -24.089 21.285 -35.875 Q21.285 -53.29 30.879 -67.561 Q40.474 -81.831 56.599 -88.281 Q56.599 -73.446 62.081 -59.901 Q67.564 -46.356 78.045 -35.875 Q88.526 -25.394 102.071 -19.911 Q115.616 -14.429 130.451 -14.429 Q124.001 1.696 109.731 11.291 Q95.46 20.885 78.045 20.885 Z M78.045 17.338 Q92.88 17.338 105.296 9.598 Q117.713 1.858 124.969 -11.088 Q110.94 -12.382 98.201 -18.046 Q85.463 -23.71 75.546 -33.743 Q65.468 -43.615 59.824 -56.192 Q54.18 -68.77 53.051 -82.799 Q40.151 -75.704 32.492 -63.207 Q24.832 -50.71 24.832 -35.875 Q24.832 -13.569 40.285 1.885 Q55.739 17.338 78.045 17.338 Z"/></g><g id="Bold-M" transform="matrix(1 0 0 1 2281.8 1126)"><path d="M60.5 17.27 Q49.48 17.27 39.837 13.073 Q30.195 8.874 23.046 1.724 Q15.896 -5.425 11.697 -15.067 Q7.5 -24.71 7.5 -35.73 Q7.5 -55.48 20.375 -70.292 Q33.25 -85.105 52.5 -88.605 Q51.375 -75.73 54.625 -63.417 Q57.875 -51.105 66.875 -42.105 Q75.875 -33.105 88.125 -30.042 Q100.375 -26.98 113.125 -27.23 Q109.875 -8.105 95.062 4.583 Q80.25 17.27 60.5 17.27 Z M60.5 1.52 Q69.25 1.52 77.062 -2.355 Q84.875 -6.23 90.125 -13.355 Q80.375 -15.105 71.625 -19.542 Q62.875 -23.98 55.75 -31.105 Q48.625 -38.23 44.125 -46.917 Q39.625 -55.605 37.875 -65.355 Q31 -59.98 27.125 -52.23 Q23.25 -44.48 23.25 -35.73 Q23.25 -20.105 34.062 -9.292 Q44.875 1.52 60.5 1.52 Z"/></g><g id="Semibold-M" transform="matrix(1 0 0 1 1985.97 1126)"><path d="M60.5 16.183 Q49.706 16.183 40.261 12.071 Q30.817 7.959 23.814 0.956 Q16.811 -6.047 12.699 -15.491 Q8.588 -24.936 8.588 -35.73 Q8.588 -54.827 20.919 -69.26 Q33.25 -83.692 51.956 -87.137 Q50.343 -74.48 53.755 -62.385 Q57.169 -50.29 66.114 -41.344 Q75.06 -32.399 87.12 -29.091 Q99.18 -25.785 111.766 -26.904 Q108.516 -8.267 94.058 3.958 Q79.597 16.183 60.5 16.183 Z M60.5 2.933 Q70.229 2.933 78.72 -1.649 Q87.211 -6.23 92.516 -14.442 Q82.331 -15.866 73.201 -20.304 Q64.07 -24.741 56.729 -32.084 Q49.386 -39.425 44.886 -48.521 Q40.386 -57.616 39.016 -67.8 Q30.946 -62.425 26.391 -53.941 Q21.837 -45.459 21.837 -35.73 Q21.837 -19.561 33.084 -8.314 Q44.331 2.933 60.5 2.933 Z"/></g><g id="Medium-M" transform="matrix(1 0 0 1 1689.91 1126)"><path d="M60.5 15.368 Q49.876 15.368 40.58 11.32 Q31.284 7.274 24.39 0.38 Q17.496 -6.514 13.45 -15.81 Q9.402 -25.106 9.402 -35.73 Q9.402 -54.339 21.326 -68.485 Q33.25 -82.632 51.549 -86.037 Q49.568 -73.542 53.104 -61.61 Q56.639 -49.679 65.544 -40.774 Q74.449 -31.869 86.365 -28.377 Q98.282 -24.887 110.748 -26.659 Q107.498 -8.39 93.302 3.489 Q79.109 15.368 60.5 15.368 Z M60.5 3.993 Q70.963 3.993 79.964 -1.119 Q88.965 -6.23 94.31 -15.257 Q83.799 -16.436 74.384 -20.874 Q64.968 -25.311 57.462 -32.817 Q49.956 -40.322 45.456 -49.724 Q40.956 -59.124 39.873 -69.635 Q30.905 -64.26 25.841 -55.226 Q20.777 -46.192 20.777 -35.73 Q20.777 -19.154 32.35 -7.58 Q43.924 3.993 60.5 3.993 Z"/></g><g id="Regular-M" transform="matrix(1 0 0 1 1394.06 1126)"><path d="M60.5 14.77 Q50 14.77 40.812 10.77 Q31.625 6.77 24.812 -0.042 Q18 -6.855 14 -16.042 Q10 -25.23 10 -35.73 Q10 -53.98 21.625 -67.917 Q33.25 -81.855 51.25 -85.23 Q49 -72.855 52.625 -61.042 Q56.25 -49.23 65.125 -40.355 Q74 -31.48 85.812 -27.855 Q97.625 -24.23 110 -26.48 Q106.75 -8.48 92.75 3.145 Q78.75 14.77 60.5 14.77 Z M60.5 4.77 Q71.5 4.77 80.875 -0.73 Q90.25 -6.23 95.625 -15.855 Q84.875 -16.855 75.25 -21.292 Q65.625 -25.73 58 -33.355 Q50.375 -40.98 45.875 -50.605 Q41.375 -60.23 40.5 -70.98 Q30.875 -65.605 25.438 -56.167 Q20 -46.73 20 -35.73 Q20 -18.855 31.812 -7.042 Q43.625 4.77 60.5 4.77 Z"/></g><g id="Light-M" transform="matrix(1 0 0 1 1098.18 1126)"><path d="M60.5 12.27 Q50.525 12.27 41.796 8.486 Q33.068 4.703 26.567 -1.797 Q20.067 -8.297 16.284 -17.026 Q12.5 -25.755 12.5 -35.73 Q12.5 -52.152 22.515 -64.985 Q32.529 -77.816 48.414 -81.816 Q47.029 -69.777 50.894 -58.47 Q54.76 -47.162 63.346 -38.576 Q71.933 -29.99 83.24 -26.124 Q94.547 -22.259 106.586 -23.644 Q102.664 -7.759 89.793 2.255 Q76.922 12.27 60.5 12.27 Z M60.5 4.77 Q71.5 4.77 80.875 -0.73 Q90.25 -6.23 95.625 -15.869 Q84.875 -16.87 75.25 -21.314 Q65.625 -25.757 58 -33.392 Q50.375 -41.027 45.875 -50.629 Q41.375 -60.23 40.5 -70.98 Q30.875 -65.605 25.438 -56.167 Q20 -46.73 20 -35.73 Q20 -18.855 31.812 -7.042 Q43.625 4.77 60.5 4.77 Z"/></g><g id="Thin-M" transform="matrix(1 0 0 1 802.565 1126)"><path d="M60.5 9.77 Q51.049 9.77 42.779 6.203 Q34.51 2.635 28.323 -3.552 Q22.135 -9.74 18.567 -18.009 Q15 -26.279 15 -35.73 Q15 -50.326 23.404 -62.052 Q31.808 -73.779 45.578 -78.402 Q45.057 -66.701 49.164 -55.899 Q53.269 -45.095 61.568 -36.797 Q69.865 -28.499 80.669 -24.394 Q91.471 -20.287 103.172 -20.807 Q98.578 -7.037 86.836 1.366 Q75.096 9.77 60.5 9.77 Z M60.5 4.77 Q71.5 4.77 80.875 -0.73 Q90.25 -6.23 95.625 -15.881 Q84.875 -16.885 75.25 -21.334 Q65.625 -25.784 58 -33.43 Q50.375 -41.076 45.875 -50.652 Q41.375 -60.23 40.5 -70.98 Q30.875 -65.605 25.438 -56.167 Q20 -46.73 20 -35.73 Q20 -18.855 31.812 -7.042 Q43.625 4.77 60.5 4.77 Z"/></g><g id="Ultralight-M" transform="matrix(1 0 0 1 506.415 1126)"><path d="M60.5 8.27 Q51.364 8.27 43.369 4.833 Q35.375 1.395 29.375 -4.605 Q23.375 -10.605 19.938 -18.599 Q16.5 -26.594 16.5 -35.73 Q16.5 -49.23 23.938 -60.292 Q31.375 -71.355 43.875 -76.355 Q43.875 -64.855 48.125 -54.355 Q52.375 -43.855 60.5 -35.73 Q68.625 -27.605 79.125 -23.355 Q89.625 -19.105 101.125 -19.105 Q96.125 -6.605 85.062 0.833 Q74 8.27 60.5 8.27 Z M60.5 4.77 Q71.5 4.77 80.875 -0.73 Q90.25 -6.23 95.625 -15.89 Q84.875 -16.894 75.25 -21.346 Q65.625 -25.8 58 -33.452 Q50.375 -41.105 45.875 -50.667 Q41.375 -60.23 40.5 -70.98 Q30.875 -65.605 25.438 -56.167 Q20 -46.73 20 -35.73 Q20 -18.855 31.812 -7.042 Q43.625 4.77 60.5 4.77 Z"/></g><g id="Bold-S" transform="matrix(1 0 0 1 2294.23 696)"><path d="M47.647 4.615 Q39.298 4.615 31.993 1.434 Q24.689 -1.746 19.272 -7.162 Q13.856 -12.579 10.676 -19.883 Q7.496 -27.188 7.496 -35.537 Q7.496 -50.517 17.161 -61.809 Q26.826 -73.102 41.62 -75.765 Q40.831 -65.606 43.346 -56.434 Q45.861 -47.262 52.764 -40.358 Q59.471 -33.652 68.791 -31.334 Q78.111 -29.017 87.678 -29.115 Q85.311 -14.617 73.969 -5.001 Q62.627 4.615 47.647 4.615 Z M47.636 -7.023 Q54.54 -7.023 60.802 -10.179 Q67.065 -13.335 70.813 -18.957 Q63.416 -20.042 56.66 -23.444 Q49.904 -26.847 44.48 -32.271 Q38.957 -37.794 35.604 -44.451 Q32.25 -51.109 30.968 -58.604 Q25.544 -54.56 22.339 -48.477 Q19.133 -42.393 19.133 -35.526 Q19.133 -23.568 27.406 -15.296 Q35.678 -7.023 47.636 -7.023 Z"/></g><g id="Semibold-S" transform="matrix(1 0 0 1 1998.1 696)"><path d="M47.647 3.756 Q39.477 3.756 32.327 0.645 Q25.179 -2.468 19.879 -7.769 Q14.578 -13.069 11.465 -20.217 Q8.354 -27.367 8.354 -35.537 Q8.354 -50.002 17.59 -60.995 Q26.826 -71.988 41.191 -74.607 Q40.016 -64.62 42.659 -55.62 Q45.303 -46.619 52.164 -39.758 Q58.828 -33.095 67.998 -30.584 Q77.168 -28.074 86.606 -28.858 Q84.239 -14.746 73.176 -5.495 Q62.112 3.756 47.647 3.756 Z M47.636 -5.909 Q55.312 -5.909 62.11 -9.622 Q68.908 -13.335 72.699 -19.815 Q64.959 -20.642 57.904 -24.045 Q50.847 -27.448 45.252 -33.043 Q39.558 -38.737 36.204 -45.717 Q32.851 -52.696 31.869 -60.533 Q25.501 -56.49 21.76 -49.827 Q18.019 -43.165 18.019 -35.526 Q18.019 -23.139 26.634 -14.524 Q35.249 -5.909 47.636 -5.909 Z"/></g><g id="Medium-S" transform="matrix(1 0 0 1 1701.85 696)"><path d="M47.647 3.113 Q39.61 3.113 32.579 0.052 Q25.547 -3.009 20.333 -8.223 Q15.119 -13.437 12.058 -20.469 Q8.997 -27.5 8.997 -35.537 Q8.997 -49.616 17.911 -60.383 Q26.826 -71.151 40.869 -73.739 Q39.405 -63.881 42.145 -55.008 Q44.885 -46.137 51.714 -39.308 Q58.346 -32.677 67.402 -30.021 Q76.46 -27.366 85.802 -28.665 Q83.435 -14.842 72.58 -5.864 Q61.726 3.113 47.647 3.113 Z M47.636 -5.072 Q55.891 -5.072 63.091 -9.204 Q70.292 -13.335 74.115 -20.458 Q66.117 -21.092 58.837 -24.495 Q51.555 -27.897 45.831 -33.622 Q40.007 -39.445 36.654 -46.666 Q33.301 -53.885 32.544 -61.981 Q25.469 -57.937 21.326 -50.84 Q17.182 -43.744 17.182 -35.526 Q17.182 -22.817 26.055 -13.945 Q34.927 -5.072 47.636 -5.072 Z"/></g><g id="Regular-S" transform="matrix(1 0 0 1 1405.73 696)"><path d="M47.647 2.642 Q39.708 2.642 32.762 -0.382 Q25.817 -3.406 20.666 -8.556 Q15.516 -13.707 12.492 -20.652 Q9.468 -27.598 9.468 -35.537 Q9.468 -49.333 18.147 -59.936 Q26.826 -70.538 40.634 -73.102 Q38.957 -63.338 41.768 -54.56 Q44.579 -45.783 51.384 -38.978 Q57.992 -32.37 66.966 -29.608 Q75.941 -26.847 85.212 -28.523 Q82.845 -14.913 72.144 -6.136 Q61.443 2.642 47.647 2.642 Z M47.636 -4.459 Q56.315 -4.459 63.81 -8.897 Q71.306 -13.335 75.152 -20.929 Q66.966 -21.422 59.52 -24.825 Q52.074 -28.228 46.255 -34.046 Q40.338 -39.964 36.984 -47.361 Q33.631 -54.758 33.039 -63.042 Q25.445 -58.999 21.007 -51.584 Q16.569 -44.168 16.569 -35.526 Q16.569 -22.581 25.631 -13.521 Q34.691 -4.459 47.636 -4.459 Z"/></g><g id="Light-S" transform="matrix(1 0 0 1 1109.75 696)"><path d="M47.647 0.67 Q40.122 0.67 33.538 -2.184 Q26.954 -5.037 22.051 -9.941 Q17.147 -14.844 14.294 -21.428 Q11.441 -28.012 11.441 -35.537 Q11.441 -47.891 18.849 -57.622 Q26.257 -67.351 38.396 -70.409 Q37.402 -60.91 40.402 -52.531 Q43.403 -44.152 49.98 -37.574 Q56.36 -31.194 64.937 -28.242 Q73.513 -25.292 82.519 -26.286 Q79.621 -14.344 69.811 -6.838 Q60.001 0.67 47.647 0.67 Z M47.636 -4.459 Q56.315 -4.459 63.81 -8.897 Q71.306 -13.335 75.152 -20.94 Q66.966 -21.434 59.52 -24.842 Q52.074 -28.249 46.255 -34.076 Q40.338 -40.001 36.984 -47.38 Q33.631 -54.758 33.039 -63.042 Q25.445 -58.999 21.007 -51.584 Q16.569 -44.168 16.569 -35.526 Q16.569 -22.581 25.631 -13.521 Q34.691 -4.459 47.636 -4.459 Z"/></g><g id="Thin-S" transform="matrix(1 0 0 1 814.015 696)"><path d="M47.647 -1.303 Q40.536 -1.303 34.315 -3.986 Q28.092 -6.668 23.435 -11.325 Q18.778 -15.982 16.096 -22.205 Q13.413 -28.426 13.413 -35.537 Q13.413 -46.451 19.55 -55.308 Q25.688 -64.166 36.158 -67.715 Q35.846 -58.483 39.037 -50.502 Q42.226 -42.52 48.577 -36.171 Q54.729 -30.018 62.908 -26.877 Q71.086 -23.736 79.825 -24.048 Q76.397 -13.775 67.478 -7.539 Q58.561 -1.303 47.647 -1.303 Z M47.636 -4.459 Q56.315 -4.459 63.81 -8.897 Q71.306 -13.335 75.152 -20.95 Q66.966 -21.446 59.52 -24.858 Q52.074 -28.27 46.255 -34.106 Q40.338 -40.04 36.984 -47.398 Q33.631 -54.758 33.039 -63.042 Q25.445 -58.999 21.007 -51.584 Q16.569 -44.168 16.569 -35.526 Q16.569 -22.581 25.631 -13.521 Q34.691 -4.459 47.636 -4.459 Z"/></g><g id="Ultralight-S" transform="matrix(1 0 0 1 517.792 696)"><path d="M47.647 -2.486 Q40.784 -2.486 34.78 -5.067 Q28.776 -7.647 24.266 -12.156 Q19.757 -16.666 17.177 -22.67 Q14.597 -28.674 14.597 -35.537 Q14.597 -45.586 19.972 -53.919 Q25.347 -62.253 34.815 -66.1 Q34.913 -57.026 38.217 -49.284 Q41.521 -41.542 47.735 -35.329 Q53.751 -29.312 61.69 -26.058 Q69.629 -22.803 78.21 -22.705 Q74.462 -13.434 66.079 -7.96 Q57.696 -2.486 47.647 -2.486 Z M47.636 -4.459 Q56.315 -4.459 63.81 -8.897 Q71.306 -13.335 75.152 -20.957 Q66.966 -21.453 59.52 -24.867 Q52.074 -28.283 46.255 -34.123 Q40.338 -40.063 36.984 -47.41 Q33.631 -54.758 33.039 -63.042 Q25.445 -58.999 21.007 -51.584 Q16.569 -44.168 16.569 -35.526 Q16.569 -22.581 25.631 -13.521 Q34.691 -4.459 47.636 -4.459 Z"/></g></g></svg>